  <svg width="445" height="188" viewBox="0 0 445 188" fill="none" xmlns="http://www.w3.org/2000/svg">
<path d="M13.4327 24.5117V22.0234L5.66321 19.0273L4.99036 18.7988L5.66321 18.583L13.4327 15.5361V13.0479L2.66711 17.8467V19.7002L13.4327 24.5117ZM27.3849 27H29.5177V13.2637H27.1564V23.1152C27.0294 23.4115 26.8686 23.6865 26.674 23.9404C26.4878 24.1859 26.2677 24.3975 26.0138 24.5752C25.7091 24.7952 25.3494 24.9688 24.9347 25.0957C24.52 25.2142 24.0503 25.2734 23.5255 25.2734C23.0769 25.2734 22.6792 25.2142 22.3322 25.0957C21.9936 24.9772 21.7059 24.7699 21.4689 24.4736C21.2319 24.1859 21.0542 23.7965 20.9357 23.3057C20.8172 22.8148 20.7579 22.1969 20.7579 21.4521V13.2637H18.4093V21.4268C18.4093 22.4508 18.5193 23.3311 18.7394 24.0674C18.9679 24.7952 19.2895 25.3962 19.7042 25.8701C20.1189 26.3441 20.6183 26.6953 21.2023 26.9238C21.7863 27.1439 22.4379 27.2539 23.1573 27.2539C24.0545 27.2539 24.8458 27.0677 25.5314 26.6953C26.2169 26.3145 26.7882 25.7855 27.2452 25.1084L27.3849 27ZM34.3165 7.5V9.54395H38.9884V24.9688H34.3165V27H45.8185V24.9688H41.337V7.5H34.3165ZM49.6144 24.499L60.8243 19.6875V17.834L49.6144 13.0352V15.46L57.8282 18.5068L58.59 18.748L57.8282 18.9639L49.6144 22.0615V24.499ZM44.6632 57.5117V55.0234L36.8937 52.0273L36.2208 51.7988L36.8937 51.583L44.6632 48.5361V46.0479L33.8976 50.8467V52.7002L44.6632 57.5117ZM49.9318 40.5V42.5439H54.6036V57.9688H49.9318V60H61.4337V57.9688H56.9523V40.5H49.9318ZM65.547 46.2637V48.3076H70.2189V57.9688H65.547V60H77.049V57.9688H72.5675V46.2637H65.547ZM69.9142 42.6582C69.9142 43.0391 70.0284 43.3564 70.257 43.6104C70.4939 43.8643 70.8494 43.9912 71.3234 43.9912C71.7889 43.9912 72.1401 43.8643 72.3771 43.6104C72.6141 43.3564 72.7325 43.0391 72.7325 42.6582C72.7325 42.4466 72.6987 42.252 72.631 42.0742C72.5633 41.8965 72.4617 41.7484 72.3263 41.6299C72.2163 41.5199 72.0766 41.4352 71.9073 41.376C71.7381 41.3083 71.5434 41.2744 71.3234 41.2744C71.1033 41.2744 70.9044 41.3083 70.7267 41.376C70.5574 41.4352 70.4178 41.5199 70.3077 41.6299C70.1723 41.7568 70.0708 41.9092 70.0031 42.0869C69.9438 42.2646 69.9142 42.4551 69.9142 42.6582ZM80.8448 57.499L92.0548 52.6875V50.834L80.8448 46.0352V48.46L89.0587 51.5068L89.8204 51.748L89.0587 51.9639L80.8448 55.0615V57.499ZM185.2 57.5117V55.0234L177.431 52.0273L176.758 51.7988L177.431 51.583L185.2 48.5361V46.0479L174.435 50.8467V52.7002L185.2 57.5117ZM193.198 61.5869L200.904 41.5156H198.81L191.091 61.5869H193.198ZM206.084 40.5V42.5439H210.756V57.9688H206.084V60H217.586V57.9688H213.105V40.5H206.084ZM221.699 46.2637V48.3076H226.371V57.9688H221.699V60H233.201V57.9688H228.72V46.2637H221.699ZM226.067 42.6582C226.067 43.0391 226.181 43.3564 226.409 43.6104C226.646 43.8643 227.002 43.9912 227.476 43.9912C227.941 43.9912 228.292 43.8643 228.529 43.6104C228.766 43.3564 228.885 43.0391 228.885 42.6582C228.885 42.4466 228.851 42.252 228.783 42.0742C228.716 41.8965 228.614 41.7484 228.479 41.6299C228.369 41.5199 228.229 41.4352 228.06 41.376C227.89 41.3083 227.696 41.2744 227.476 41.2744C227.256 41.2744 227.057 41.3083 226.879 41.376C226.71 41.4352 226.57 41.5199 226.46 41.6299C226.325 41.7568 226.223 41.9092 226.155 42.0869C226.096 42.2646 226.067 42.4551 226.067 42.6582ZM236.997 57.499L248.207 52.6875V50.834L236.997 46.0352V48.46L245.211 51.5068L245.973 51.748L245.211 51.9639L236.997 55.0615V57.499ZM44.6632 90.5117V88.0234L36.8937 85.0273L36.2208 84.7988L36.8937 84.583L44.6632 81.5361V79.0479L33.8976 83.8467V85.7002L44.6632 90.5117ZM49.9318 73.5V75.5439H54.6036V90.9688H49.9318V93H61.4337V90.9688H56.9523V73.5H49.9318ZM65.547 79.2637V81.3076H70.2189V90.9688H65.547V93H77.049V90.9688H72.5675V79.2637H65.547ZM69.9142 75.6582C69.9142 76.0391 70.0284 76.3564 70.257 76.6104C70.4939 76.8643 70.8494 76.9912 71.3234 76.9912C71.7889 76.9912 72.1401 76.8643 72.3771 76.6104C72.6141 76.3564 72.7325 76.0391 72.7325 75.6582C72.7325 75.4466 72.6987 75.252 72.631 75.0742C72.5633 74.8965 72.4617 74.7484 72.3263 74.6299C72.2163 74.5199 72.0766 74.4352 71.9073 74.376C71.7381 74.3083 71.5434 74.2744 71.3234 74.2744C71.1033 74.2744 70.9044 74.3083 70.7267 74.376C70.5574 74.4352 70.4178 74.5199 70.3077 74.6299C70.1723 74.7568 70.0708 74.9092 70.0031 75.0869C69.9438 75.2646 69.9142 75.4551 69.9142 75.6582ZM80.8448 90.499L92.0548 85.6875V83.834L80.8448 79.0352V81.46L89.0587 84.5068L89.8204 84.748L89.0587 84.9639L80.8448 88.0615V90.499ZM372.583 90.5117V88.0234L364.814 85.0273L364.141 84.7988L364.814 84.583L372.583 81.5361V79.0479L361.818 83.8467V85.7002L372.583 90.5117ZM380.581 94.5869L388.287 74.5156H386.193L378.474 94.5869H380.581ZM393.467 73.5V75.5439H398.139V90.9688H393.467V93H404.969V90.9688H400.487V73.5H393.467ZM409.082 79.2637V81.3076H413.754V90.9688H409.082V93H420.584V90.9688H416.103V79.2637H409.082ZM413.449 75.6582C413.449 76.0391 413.564 76.3564 413.792 76.6104C414.029 76.8643 414.385 76.9912 414.859 76.9912C415.324 76.9912 415.675 76.8643 415.912 76.6104C416.149 76.3564 416.268 76.0391 416.268 75.6582C416.268 75.4466 416.234 75.252 416.166 75.0742C416.098 74.8965 415.997 74.7484 415.861 74.6299C415.751 74.5199 415.612 74.4352 415.443 74.376C415.273 74.3083 415.079 74.2744 414.859 74.2744C414.638 74.2744 414.44 74.3083 414.262 74.376C414.093 74.4352 413.953 74.5199 413.843 74.6299C413.707 74.7568 413.606 74.9092 413.538 75.0869C413.479 75.2646 413.449 75.4551 413.449 75.6582ZM424.38 90.499L435.59 85.6875V83.834L424.38 79.0352V81.46L432.594 84.5068L433.356 84.748L432.594 84.9639L424.38 88.0615V90.499ZM44.6632 123.512V121.023L36.8937 118.027L36.2208 117.799L36.8937 117.583L44.6632 114.536V112.048L33.8976 116.847V118.7L44.6632 123.512ZM49.9318 106.5V108.544H54.6036V123.969H49.9318V126H61.4337V123.969H56.9523V106.5H49.9318ZM65.547 112.264V114.308H70.2189V123.969H65.547V126H77.049V123.969H72.5675V112.264H65.547ZM69.9142 108.658C69.9142 109.039 70.0284 109.356 70.257 109.61C70.4939 109.864 70.8494 109.991 71.3234 109.991C71.7889 109.991 72.1401 109.864 72.3771 109.61C72.6141 109.356 72.7325 109.039 72.7325 108.658C72.7325 108.447 72.6987 108.252 72.631 108.074C72.5633 107.896 72.4617 107.748 72.3263 107.63C72.2163 107.52 72.0766 107.435 71.9073 107.376C71.7381 107.308 71.5434 107.274 71.3234 107.274C71.1033 107.274 70.9044 107.308 70.7267 107.376C70.5574 107.435 70.4178 107.52 70.3077 107.63C70.1723 107.757 70.0708 107.909 70.0031 108.087C69.9438 108.265 69.9142 108.455 69.9142 108.658ZM80.8448 123.499L92.0548 118.688V116.834L80.8448 112.035V114.46L89.0587 117.507L89.8204 117.748L89.0587 117.964L80.8448 121.062V123.499ZM200.816 123.512V121.023L193.046 118.027L192.373 117.799L193.046 117.583L200.816 114.536V112.048L190.05 116.847V118.7L200.816 123.512ZM208.814 127.587L216.52 107.516H214.425L206.706 127.587H208.814ZM221.699 106.5V108.544H226.371V123.969H221.699V126H233.201V123.969H228.72V106.5H221.699ZM237.315 112.264V114.308H241.986V123.969H237.315V126H248.817V123.969H244.335V112.264H237.315ZM241.682 108.658C241.682 109.039 241.796 109.356 242.025 109.61C242.262 109.864 242.617 109.991 243.091 109.991C243.556 109.991 243.908 109.864 244.145 109.61C244.382 109.356 244.5 109.039 244.5 108.658C244.5 108.447 244.466 108.252 244.399 108.074C244.331 107.896 244.229 107.748 244.094 107.63C243.984 107.52 243.844 107.435 243.675 107.376C243.506 107.308 243.311 107.274 243.091 107.274C242.871 107.274 242.672 107.308 242.494 107.376C242.325 107.435 242.185 107.52 242.075 107.63C241.94 107.757 241.838 107.909 241.771 108.087C241.711 108.265 241.682 108.455 241.682 108.658ZM252.612 123.499L263.822 118.688V116.834L252.612 112.035V114.46L260.826 117.507L261.588 117.748L260.826 117.964L252.612 121.062V123.499ZM13.4327 156.512V154.023L5.66321 151.027L4.99036 150.799L5.66321 150.583L13.4327 147.536V145.048L2.66711 149.847V151.7L13.4327 156.512ZM21.4308 160.587L29.1368 140.516H27.0421L19.3234 160.587H21.4308ZM43.0001 159H45.1329V145.264H42.7716V155.115C42.6447 155.411 42.4838 155.687 42.2892 155.94C42.103 156.186 41.8829 156.397 41.629 156.575C41.3243 156.795 40.9646 156.969 40.5499 157.096C40.1352 157.214 39.6655 157.273 39.1407 157.273C38.6922 157.273 38.2944 157.214 37.9474 157.096C37.6088 156.977 37.3211 156.77 37.0841 156.474C36.8471 156.186 36.6694 155.797 36.5509 155.306C36.4324 154.815 36.3732 154.197 36.3732 153.452V145.264H34.0245V153.427C34.0245 154.451 34.1346 155.331 34.3546 156.067C34.5831 156.795 34.9047 157.396 35.3195 157.87C35.7342 158.344 36.2335 158.695 36.8175 158.924C37.4015 159.144 38.0532 159.254 38.7726 159.254C39.6697 159.254 40.4611 159.068 41.1466 158.695C41.8322 158.314 42.4034 157.785 42.8605 157.108L43.0001 159ZM49.9318 139.5V141.544H54.6036V156.969H49.9318V159H61.4337V156.969H56.9523V139.5H49.9318ZM65.2296 156.499L76.4396 151.688V149.834L65.2296 145.035V147.46L73.4435 150.507L74.2052 150.748L73.4435 150.964L65.2296 154.062V156.499Z" fill="#051717"/>
<path d="M108 60V41.5156H105.778V49.4629H98.1993V41.5156H95.9904V60H98.1993V51.4561H105.778V60H108ZM124.491 43.5215V41.5156H110.78V43.5215H116.493V60H118.778V43.5215H124.491ZM130.217 41.5156H127.31V60H129.595V52.624L129.404 45.1719L132.54 54.8584H133.886L137.301 44.9053L137.11 52.624V60H139.396V41.5156H136.476L133.226 50.7578L130.217 41.5156ZM145.908 58.0068V41.5156H143.56V60H154.947V58.0068H145.908ZM162.958 58.4766C162.958 58.9674 163.11 59.3864 163.415 59.7334C163.728 60.0719 164.19 60.2412 164.799 60.2412C165.4 60.2412 165.861 60.0719 166.183 59.7334C166.504 59.3949 166.665 58.9759 166.665 58.4766C166.665 57.9688 166.504 57.5413 166.183 57.1943C165.87 56.8389 165.408 56.6611 164.799 56.6611C164.181 56.6611 163.72 56.8389 163.415 57.1943C163.11 57.5498 162.958 57.9772 162.958 58.4766ZM108.381 87.4395H106.032C105.956 87.998 105.825 88.5186 105.639 89.001C105.453 89.4749 105.203 89.8854 104.89 90.2324C104.577 90.5879 104.192 90.863 103.734 91.0576C103.286 91.2523 102.753 91.3496 102.135 91.3496C101.568 91.3496 101.073 91.2607 100.65 91.083C100.226 90.8968 99.8582 90.6429 99.545 90.3213C99.2319 90.0081 98.9738 89.6442 98.7706 89.2295C98.5675 88.8148 98.4025 88.3704 98.2755 87.8965C98.1486 87.431 98.0555 86.957 97.9962 86.4746C97.9454 85.9837 97.92 85.5098 97.92 85.0527V82.4502C97.92 81.9932 97.9454 81.5234 97.9962 81.041C98.0555 80.5501 98.1486 80.0719 98.2755 79.6064C98.4025 79.141 98.5675 78.7008 98.7706 78.2861C98.9822 77.8714 99.2446 77.5075 99.5577 77.1943C99.8624 76.8812 100.226 76.6357 100.65 76.458C101.081 76.2718 101.576 76.1787 102.135 76.1787C102.753 76.1787 103.286 76.2845 103.734 76.4961C104.192 76.6992 104.577 76.9827 104.89 77.3467C105.203 77.7106 105.453 78.1338 105.639 78.6162C105.825 79.0986 105.956 79.6191 106.032 80.1777H108.381C108.279 79.2975 108.068 78.4935 107.746 77.7656C107.433 77.0378 107.014 76.4115 106.489 75.8867C105.965 75.3704 105.338 74.9727 104.61 74.6934C103.883 74.4056 103.057 74.2617 102.135 74.2617C101.365 74.2617 100.671 74.3717 100.053 74.5918C99.435 74.8034 98.8849 75.0996 98.4025 75.4805C97.9116 75.8613 97.4884 76.3141 97.1329 76.8389C96.7859 77.3551 96.4982 77.918 96.2697 78.5273C96.0327 79.1367 95.8549 79.7757 95.7365 80.4443C95.6264 81.113 95.5672 81.79 95.5587 82.4756V85.0527C95.5672 85.7383 95.6264 86.4154 95.7365 87.084C95.8549 87.7526 96.0327 88.3916 96.2697 89.001C96.4982 89.6104 96.7859 90.1732 97.1329 90.6895C97.4884 91.2057 97.9116 91.6543 98.4025 92.0352C98.8849 92.416 99.435 92.7165 100.053 92.9365C100.679 93.1481 101.373 93.2539 102.135 93.2539C103.024 93.2539 103.828 93.1143 104.547 92.835C105.275 92.5472 105.905 92.1452 106.439 91.6289C106.963 91.1211 107.391 90.5117 107.721 89.8008C108.051 89.0814 108.271 88.2943 108.381 87.4395ZM121.698 88.3281C121.698 88.8359 121.588 89.276 121.368 89.6484C121.148 90.0124 120.865 90.3128 120.518 90.5498C120.171 90.7952 119.773 90.9772 119.324 91.0957C118.884 91.2057 118.436 91.2607 117.979 91.2607C117.403 91.2607 116.87 91.1846 116.379 91.0322C115.897 90.8714 115.469 90.6344 115.097 90.3213C114.724 90.0166 114.42 89.6442 114.183 89.2041C113.946 88.7555 113.789 88.2435 113.713 87.668H111.314C111.339 88.4635 111.512 89.1872 111.834 89.8389C112.164 90.4821 112.609 91.0449 113.167 91.5273C113.793 92.0859 114.53 92.5133 115.376 92.8096C116.231 93.1058 117.098 93.2539 117.979 93.2539C118.715 93.2539 119.451 93.1523 120.188 92.9492C120.924 92.7376 121.584 92.4245 122.168 92.0098C122.752 91.6035 123.226 91.0915 123.59 90.4736C123.962 89.8558 124.149 89.1322 124.149 88.3027C124.149 87.4818 123.975 86.7581 123.628 86.1318C123.29 85.5055 122.841 84.9766 122.282 84.5449C121.715 84.0794 121.089 83.6986 120.403 83.4023C119.718 83.0977 119.032 82.8395 118.347 82.6279C117.932 82.501 117.488 82.3529 117.014 82.1836C116.548 82.0143 116.117 81.8027 115.719 81.5488C115.313 81.2949 114.978 80.986 114.716 80.6221C114.454 80.2497 114.318 79.7969 114.31 79.2637C114.31 78.7728 114.407 78.3411 114.602 77.9688C114.805 77.5964 115.076 77.2832 115.414 77.0293C115.744 76.7754 116.121 76.585 116.544 76.458C116.976 76.3311 117.416 76.2676 117.864 76.2676C118.423 76.2676 118.922 76.3564 119.362 76.5342C119.811 76.7035 120.196 76.9447 120.518 77.2578C120.839 77.571 121.097 77.9476 121.292 78.3877C121.487 78.8193 121.618 79.3018 121.686 79.835H124.098C124.081 78.9886 123.899 78.2227 123.552 77.5371C123.205 76.8516 122.744 76.2676 122.168 75.7852C121.593 75.3027 120.932 74.9303 120.188 74.668C119.443 74.3971 118.668 74.2617 117.864 74.2617C117.137 74.2617 116.413 74.376 115.693 74.6045C114.974 74.8245 114.331 75.1504 113.764 75.582C113.197 76.0137 112.735 76.5426 112.38 77.1689C112.033 77.7952 111.859 78.5062 111.859 79.3018C111.859 80.0973 112.033 80.7913 112.38 81.3838C112.735 81.9678 113.193 82.4756 113.751 82.9072C114.301 83.3304 114.911 83.6943 115.579 83.999C116.256 84.2952 116.921 84.5492 117.572 84.7607C118.021 84.9046 118.486 85.0654 118.969 85.2432C119.46 85.4209 119.908 85.641 120.315 85.9033C120.721 86.1742 121.051 86.5042 121.305 86.8936C121.567 87.2829 121.698 87.7611 121.698 88.3281ZM137.314 88.3281C137.314 88.8359 137.204 89.276 136.984 89.6484C136.763 90.0124 136.48 90.3128 136.133 90.5498C135.786 90.7952 135.388 90.9772 134.94 91.0957C134.499 91.2057 134.051 91.2607 133.594 91.2607C133.018 91.2607 132.485 91.1846 131.994 91.0322C131.512 90.8714 131.084 90.6344 130.712 90.3213C130.34 90.0166 130.035 89.6442 129.798 89.2041C129.561 88.7555 129.404 88.2435 129.328 87.668H126.929C126.954 88.4635 127.128 89.1872 127.449 89.8389C127.779 90.4821 128.224 91.0449 128.782 91.5273C129.409 92.0859 130.145 92.5133 130.991 92.8096C131.846 93.1058 132.714 93.2539 133.594 93.2539C134.33 93.2539 135.067 93.1523 135.803 92.9492C136.539 92.7376 137.199 92.4245 137.783 92.0098C138.367 91.6035 138.841 91.0915 139.205 90.4736C139.578 89.8558 139.764 89.1322 139.764 88.3027C139.764 87.4818 139.59 86.7581 139.243 86.1318C138.905 85.5055 138.456 84.9766 137.898 84.5449C137.331 84.0794 136.704 83.6986 136.019 83.4023C135.333 83.0977 134.648 82.8395 133.962 82.6279C133.547 82.501 133.103 82.3529 132.629 82.1836C132.164 82.0143 131.732 81.8027 131.334 81.5488C130.928 81.2949 130.594 80.986 130.331 80.6221C130.069 80.2497 129.933 79.7969 129.925 79.2637C129.925 78.7728 130.022 78.3411 130.217 77.9688C130.42 77.5964 130.691 77.2832 131.029 77.0293C131.359 76.7754 131.736 76.585 132.159 76.458C132.591 76.3311 133.031 76.2676 133.48 76.2676C134.038 76.2676 134.538 76.3564 134.978 76.5342C135.426 76.7035 135.811 76.9447 136.133 77.2578C136.455 77.571 136.713 77.9476 136.907 78.3877C137.102 78.8193 137.233 79.3018 137.301 79.835H139.713C139.696 78.9886 139.514 78.2227 139.167 77.5371C138.82 76.8516 138.359 76.2676 137.783 75.7852C137.208 75.3027 136.548 74.9303 135.803 74.668C135.058 74.3971 134.284 74.2617 133.48 74.2617C132.752 74.2617 132.028 74.376 131.309 74.6045C130.589 74.8245 129.946 75.1504 129.379 75.582C128.812 76.0137 128.351 76.5426 127.995 77.1689C127.648 77.7952 127.475 78.5062 127.475 79.3018C127.475 80.0973 127.648 80.7913 127.995 81.3838C128.351 81.9678 128.808 82.4756 129.366 82.9072C129.916 83.3304 130.526 83.6943 131.194 83.999C131.872 84.2952 132.536 84.5492 133.188 84.7607C133.636 84.9046 134.102 85.0654 134.584 85.2432C135.075 85.4209 135.524 85.641 135.93 85.9033C136.336 86.1742 136.666 86.5042 136.92 86.8936C137.182 87.2829 137.314 87.7611 137.314 88.3281ZM167.897 93H170.347V92.7969C170.194 92.416 170.076 91.9717 169.991 91.4639C169.907 90.9476 169.864 90.4609 169.864 90.0039V83.6182C169.864 82.848 169.725 82.1751 169.445 81.5996C169.166 81.0241 168.785 80.5417 168.303 80.1523C167.812 79.7715 167.232 79.488 166.564 79.3018C165.895 79.1071 165.171 79.0098 164.393 79.0098C163.538 79.0098 162.772 79.1283 162.095 79.3652C161.426 79.6022 160.859 79.9111 160.394 80.292C159.92 80.6813 159.556 81.1172 159.302 81.5996C159.056 82.082 158.929 82.5729 158.921 83.0723H161.282C161.282 82.7845 161.35 82.5094 161.485 82.2471C161.629 81.9762 161.828 81.7435 162.082 81.5488C162.336 81.3542 162.645 81.1976 163.009 81.0791C163.381 80.9606 163.8 80.9014 164.266 80.9014C164.765 80.9014 165.214 80.9648 165.611 81.0918C166.018 81.2188 166.36 81.3965 166.64 81.625C166.919 81.862 167.135 82.1455 167.287 82.4756C167.44 82.8057 167.516 83.1781 167.516 83.5928V84.6719H164.951C163.995 84.6719 163.127 84.765 162.349 84.9512C161.579 85.1374 160.918 85.4167 160.368 85.7891C159.818 86.1699 159.391 86.6439 159.086 87.2109C158.79 87.778 158.642 88.4382 158.642 89.1914C158.642 89.7669 158.752 90.3044 158.972 90.8037C159.2 91.2946 159.522 91.7178 159.937 92.0732C160.343 92.4372 160.838 92.7249 161.422 92.9365C162.014 93.1481 162.675 93.2539 163.402 93.2539C163.851 93.2539 164.274 93.2074 164.672 93.1143C165.07 93.0212 165.446 92.8942 165.802 92.7334C166.149 92.5726 166.466 92.3864 166.754 92.1748C167.05 91.9632 167.317 91.7389 167.554 91.502C167.579 91.7897 167.617 92.069 167.668 92.3398C167.727 92.6022 167.804 92.8223 167.897 93ZM163.745 91.21C163.288 91.21 162.886 91.1507 162.539 91.0322C162.192 90.9137 161.904 90.7487 161.676 90.5371C161.447 90.334 161.274 90.0885 161.155 89.8008C161.045 89.513 160.99 89.1999 160.99 88.8613C160.99 88.5059 161.054 88.1885 161.181 87.9092C161.316 87.6299 161.511 87.3887 161.765 87.1855C162.12 86.8978 162.598 86.6862 163.199 86.5508C163.809 86.4069 164.52 86.335 165.332 86.335H167.516V89.1152C167.38 89.3861 167.194 89.6484 166.957 89.9023C166.72 90.1478 166.441 90.3678 166.119 90.5625C165.789 90.7572 165.425 90.9137 165.027 91.0322C164.63 91.1507 164.202 91.21 163.745 91.21ZM174.485 93H176.834V83.1484C176.995 82.8522 177.181 82.5814 177.393 82.3359C177.613 82.0905 177.85 81.8747 178.104 81.6885C178.417 81.4769 178.76 81.3118 179.132 81.1934C179.504 81.0664 179.906 81.0029 180.338 81.0029C180.837 81.0029 181.277 81.0622 181.658 81.1807C182.048 81.2992 182.378 81.4896 182.649 81.752C182.911 82.0143 183.11 82.3571 183.245 82.7803C183.381 83.2035 183.448 83.7197 183.448 84.3291V93H185.797V84.2783C185.797 83.3643 185.683 82.5771 185.454 81.917C185.234 81.2484 184.917 80.6982 184.502 80.2666C184.087 79.835 183.584 79.5176 182.991 79.3145C182.407 79.1113 181.756 79.0098 181.036 79.0098C180.503 79.0182 179.995 79.0986 179.513 79.251C179.039 79.3949 178.599 79.6022 178.193 79.873C177.922 80.0508 177.664 80.2624 177.418 80.5078C177.181 80.7448 176.961 81.0072 176.758 81.2949L176.593 79.2637H174.485V93ZM189.656 86.0176V86.2842C189.656 87.266 189.788 88.1842 190.05 89.0391C190.312 89.8854 190.68 90.6217 191.154 91.248C191.628 91.8743 192.2 92.3652 192.868 92.7207C193.545 93.0762 194.299 93.2539 195.128 93.2539C195.974 93.2539 196.715 93.11 197.35 92.8223C197.984 92.5345 198.53 92.1113 198.987 91.5527L199.089 93H201.247V73.5H198.899V80.6221C198.45 80.0973 197.917 79.6995 197.299 79.4287C196.69 79.1494 195.974 79.0098 195.153 79.0098C194.316 79.0098 193.558 79.1833 192.881 79.5303C192.204 79.8773 191.628 80.3597 191.154 80.9775C190.672 81.5954 190.3 82.3359 190.037 83.1992C189.783 84.054 189.656 84.9935 189.656 86.0176ZM192.005 86.2842V86.0176C192.005 85.349 192.077 84.7142 192.221 84.1133C192.365 83.5039 192.589 82.9665 192.894 82.501C193.19 82.0439 193.571 81.68 194.036 81.4092C194.51 81.1383 195.077 81.0029 195.737 81.0029C196.508 81.0029 197.151 81.1849 197.667 81.5488C198.183 81.9043 198.594 82.3613 198.899 82.9199V89.293C198.594 89.8939 198.183 90.3721 197.667 90.7275C197.151 91.083 196.499 91.2607 195.712 91.2607C195.06 91.2607 194.502 91.1296 194.036 90.8672C193.571 90.5964 193.19 90.2324 192.894 89.7754C192.589 89.3184 192.365 88.7894 192.221 88.1885C192.077 87.5876 192.005 86.9528 192.005 86.2842ZM233.798 76.5215V74.5156H220.087V76.5215H225.8V93H228.085V76.5215H233.798ZM245.973 93H248.423V92.7969C248.271 92.416 248.152 91.9717 248.068 91.4639C247.983 90.9476 247.941 90.4609 247.941 90.0039V83.6182C247.941 82.848 247.801 82.1751 247.522 81.5996C247.242 81.0241 246.861 80.5417 246.379 80.1523C245.888 79.7715 245.308 79.488 244.64 79.3018C243.971 79.1071 243.248 79.0098 242.469 79.0098C241.614 79.0098 240.848 79.1283 240.171 79.3652C239.502 79.6022 238.935 79.9111 238.47 80.292C237.996 80.6813 237.632 81.1172 237.378 81.5996C237.133 82.082 237.006 82.5729 236.997 83.0723H239.359C239.359 82.7845 239.426 82.5094 239.562 82.2471C239.706 81.9762 239.904 81.7435 240.158 81.5488C240.412 81.3542 240.721 81.1976 241.085 81.0791C241.457 80.9606 241.876 80.9014 242.342 80.9014C242.841 80.9014 243.29 80.9648 243.688 81.0918C244.094 81.2188 244.437 81.3965 244.716 81.625C244.995 81.862 245.211 82.1455 245.363 82.4756C245.516 82.8057 245.592 83.1781 245.592 83.5928V84.6719H243.027C242.071 84.6719 241.204 84.765 240.425 84.9512C239.655 85.1374 238.995 85.4167 238.444 85.7891C237.894 86.1699 237.467 86.6439 237.162 87.2109C236.866 87.778 236.718 88.4382 236.718 89.1914C236.718 89.7669 236.828 90.3044 237.048 90.8037C237.276 91.2946 237.598 91.7178 238.013 92.0732C238.419 92.4372 238.914 92.7249 239.498 92.9365C240.091 93.1481 240.751 93.2539 241.479 93.2539C241.927 93.2539 242.35 93.2074 242.748 93.1143C243.146 93.0212 243.523 92.8942 243.878 92.7334C244.225 92.5726 244.542 92.3864 244.83 92.1748C245.126 91.9632 245.393 91.7389 245.63 91.502C245.655 91.7897 245.693 92.069 245.744 92.3398C245.804 92.6022 245.88 92.8223 245.973 93ZM241.821 91.21C241.364 91.21 240.962 91.1507 240.615 91.0322C240.268 90.9137 239.981 90.7487 239.752 90.5371C239.524 90.334 239.35 90.0885 239.232 89.8008C239.122 89.513 239.067 89.1999 239.067 88.8613C239.067 88.5059 239.13 88.1885 239.257 87.9092C239.392 87.6299 239.587 87.3887 239.841 87.1855C240.196 86.8978 240.675 86.6862 241.276 86.5508C241.885 86.4069 242.596 86.335 243.408 86.335H245.592V89.1152C245.457 89.3861 245.27 89.6484 245.033 89.9023C244.796 90.1478 244.517 90.3678 244.195 90.5625C243.865 90.7572 243.501 90.9137 243.104 91.0322C242.706 91.1507 242.278 91.21 241.821 91.21ZM252.93 79.2637V81.3076H257.602V90.9688H252.93V93H264.432V90.9688H259.95V79.2637H252.93ZM257.297 75.6582C257.297 76.0391 257.411 76.3564 257.64 76.6104C257.877 76.8643 258.232 76.9912 258.706 76.9912C259.172 76.9912 259.523 76.8643 259.76 76.6104C259.997 76.3564 260.115 76.0391 260.115 75.6582C260.115 75.4466 260.082 75.252 260.014 75.0742C259.946 74.8965 259.845 74.7484 259.709 74.6299C259.599 74.5199 259.459 74.4352 259.29 74.376C259.121 74.3083 258.926 74.2744 258.706 74.2744C258.486 74.2744 258.287 74.3083 258.109 74.376C257.94 74.4352 257.801 74.5199 257.691 74.6299C257.555 74.7568 257.454 74.9092 257.386 75.0869C257.327 75.2646 257.297 75.4551 257.297 75.6582ZM268.545 73.5V75.5439H273.217V90.9688H268.545V93H280.047V90.9688H275.566V73.5H268.545ZM285.112 93H286.966L289.086 84.583L289.429 82.4502L289.784 84.583L291.93 93H293.783L296.703 79.2637H294.621L293.098 88.0234L292.755 90.1816L292.387 88.0234L290.203 79.2637H288.693L286.496 88.0234L286.153 89.9912L285.874 88.0234L284.275 79.2637H282.193L285.112 93ZM299.776 79.2637V81.3076H304.447V90.9688H299.776V93H311.277V90.9688H306.796V79.2637H299.776ZM304.143 75.6582C304.143 76.0391 304.257 76.3564 304.485 76.6104C304.722 76.8643 305.078 76.9912 305.552 76.9912C306.017 76.9912 306.369 76.8643 306.606 76.6104C306.843 76.3564 306.961 76.0391 306.961 75.6582C306.961 75.4466 306.927 75.252 306.859 75.0742C306.792 74.8965 306.69 74.7484 306.555 74.6299C306.445 74.5199 306.305 74.4352 306.136 74.376C305.967 74.3083 305.772 74.2744 305.552 74.2744C305.332 74.2744 305.133 74.3083 304.955 74.376C304.786 74.4352 304.646 74.5199 304.536 74.6299C304.401 74.7568 304.299 74.9092 304.232 75.0869C304.172 75.2646 304.143 75.4551 304.143 75.6582ZM315.023 93H317.371V83.1484C317.532 82.8522 317.718 82.5814 317.93 82.3359C318.15 82.0905 318.387 81.8747 318.641 81.6885C318.954 81.4769 319.297 81.3118 319.669 81.1934C320.041 81.0664 320.443 81.0029 320.875 81.0029C321.374 81.0029 321.815 81.0622 322.195 81.1807C322.585 81.2992 322.915 81.4896 323.186 81.752C323.448 82.0143 323.647 82.3571 323.782 82.7803C323.918 83.2035 323.985 83.7197 323.985 84.3291V93H326.334V84.2783C326.334 83.3643 326.22 82.5771 325.991 81.917C325.771 81.2484 325.454 80.6982 325.039 80.2666C324.624 79.835 324.121 79.5176 323.528 79.3145C322.944 79.1113 322.293 79.0098 321.573 79.0098C321.04 79.0182 320.532 79.0986 320.05 79.251C319.576 79.3949 319.136 79.6022 318.73 79.873C318.459 80.0508 318.201 80.2624 317.955 80.5078C317.718 80.7448 317.498 81.0072 317.295 81.2949L317.13 79.2637H315.023V93ZM330.193 86.0176V86.2842C330.193 87.266 330.325 88.1842 330.587 89.0391C330.849 89.8854 331.218 90.6217 331.692 91.248C332.165 91.8743 332.737 92.3652 333.405 92.7207C334.082 93.0762 334.836 93.2539 335.665 93.2539C336.512 93.2539 337.252 93.11 337.887 92.8223C338.522 92.5345 339.068 92.1113 339.525 91.5527L339.626 93H341.784V73.5H339.436V80.6221C338.987 80.0973 338.454 79.6995 337.836 79.4287C337.227 79.1494 336.512 79.0098 335.691 79.0098C334.853 79.0098 334.095 79.1833 333.418 79.5303C332.741 79.8773 332.165 80.3597 331.692 80.9775C331.209 81.5954 330.837 82.3359 330.574 83.1992C330.32 84.054 330.193 84.9935 330.193 86.0176ZM332.542 86.2842V86.0176C332.542 85.349 332.614 84.7142 332.758 84.1133C332.902 83.5039 333.126 82.9665 333.431 82.501C333.727 82.0439 334.108 81.68 334.573 81.4092C335.047 81.1383 335.614 81.0029 336.275 81.0029C337.045 81.0029 337.688 81.1849 338.204 81.5488C338.72 81.9043 339.131 82.3613 339.436 82.9199V89.293C339.131 89.8939 338.72 90.3721 338.204 90.7275C337.688 91.083 337.036 91.2607 336.249 91.2607C335.597 91.2607 335.039 91.1296 334.573 90.8672C334.108 90.5964 333.727 90.2324 333.431 89.7754C333.126 89.3184 332.902 88.7894 332.758 88.1885C332.614 87.5876 332.542 86.9528 332.542 86.2842ZM350.341 91.4766C350.341 91.9674 350.493 92.3864 350.798 92.7334C351.111 93.0719 351.572 93.2412 352.182 93.2412C352.783 93.2412 353.244 93.0719 353.566 92.7334C353.887 92.3949 354.048 91.9759 354.048 91.4766C354.048 90.9688 353.887 90.5413 353.566 90.1943C353.252 89.8389 352.791 89.6611 352.182 89.6611C351.564 89.6611 351.103 89.8389 350.798 90.1943C350.493 90.5498 350.341 90.9772 350.341 91.4766ZM102.528 118.459L106.159 126H108.635L108.648 125.848L104.725 117.951C105.233 117.731 105.698 117.465 106.121 117.151C106.544 116.838 106.908 116.479 107.213 116.072C107.518 115.666 107.755 115.213 107.924 114.714C108.102 114.215 108.191 113.664 108.191 113.063C108.191 112.132 108.026 111.324 107.695 110.639C107.374 109.945 106.929 109.369 106.362 108.912C105.787 108.455 105.118 108.112 104.357 107.884C103.595 107.655 102.782 107.533 101.919 107.516H96.4982V126H98.8341V118.459H102.528ZM98.8341 116.529V109.445H101.919C102.486 109.454 103.007 109.534 103.481 109.687C103.963 109.839 104.378 110.063 104.725 110.359C105.072 110.664 105.343 111.041 105.537 111.489C105.732 111.929 105.829 112.446 105.829 113.038C105.829 113.597 105.728 114.092 105.525 114.523C105.321 114.947 105.046 115.306 104.699 115.603C104.344 115.899 103.933 116.127 103.468 116.288C103.002 116.44 102.507 116.521 101.983 116.529H98.8341ZM118.093 126.254C119.43 126.254 120.552 125.987 121.457 125.454C122.371 124.912 123.057 124.295 123.514 123.601L122.079 122.483C121.648 123.042 121.106 123.491 120.454 123.829C119.803 124.168 119.058 124.337 118.22 124.337C117.585 124.337 117.005 124.218 116.481 123.981C115.956 123.744 115.507 123.419 115.135 123.004C114.771 122.615 114.483 122.166 114.272 121.658C114.068 121.15 113.937 120.562 113.878 119.894V119.805H123.692V118.751C123.692 117.795 123.569 116.906 123.323 116.085C123.086 115.264 122.722 114.549 122.232 113.939C121.741 113.339 121.123 112.869 120.378 112.53C119.642 112.183 118.778 112.01 117.788 112.01C117.001 112.01 116.231 112.171 115.478 112.492C114.733 112.814 114.068 113.275 113.484 113.876C112.892 114.485 112.418 115.23 112.063 116.11C111.707 116.982 111.529 117.972 111.529 119.081V119.614C111.529 120.571 111.69 121.455 112.012 122.268C112.333 123.08 112.782 123.783 113.358 124.375C113.933 124.967 114.623 125.429 115.427 125.759C116.239 126.089 117.128 126.254 118.093 126.254ZM117.788 113.939C118.389 113.939 118.905 114.049 119.337 114.27C119.777 114.49 120.141 114.777 120.429 115.133C120.717 115.488 120.941 115.911 121.102 116.402C121.262 116.885 121.343 117.338 121.343 117.761V117.875H113.954C114.047 117.24 114.208 116.682 114.437 116.199C114.674 115.708 114.961 115.294 115.3 114.955C115.638 114.625 116.019 114.375 116.443 114.206C116.866 114.028 117.314 113.939 117.788 113.939ZM136.666 126H139.116V125.797C138.964 125.416 138.845 124.972 138.761 124.464C138.676 123.948 138.634 123.461 138.634 123.004V116.618C138.634 115.848 138.494 115.175 138.215 114.6C137.936 114.024 137.555 113.542 137.072 113.152C136.582 112.771 136.002 112.488 135.333 112.302C134.665 112.107 133.941 112.01 133.162 112.01C132.307 112.01 131.541 112.128 130.864 112.365C130.196 112.602 129.629 112.911 129.163 113.292C128.689 113.681 128.325 114.117 128.071 114.6C127.826 115.082 127.699 115.573 127.691 116.072H130.052C130.052 115.785 130.12 115.509 130.255 115.247C130.399 114.976 130.598 114.743 130.852 114.549C131.106 114.354 131.415 114.198 131.778 114.079C132.151 113.961 132.57 113.901 133.035 113.901C133.535 113.901 133.983 113.965 134.381 114.092C134.787 114.219 135.13 114.396 135.409 114.625C135.689 114.862 135.904 115.146 136.057 115.476C136.209 115.806 136.285 116.178 136.285 116.593V117.672H133.721C132.764 117.672 131.897 117.765 131.118 117.951C130.348 118.137 129.688 118.417 129.138 118.789C128.588 119.17 128.16 119.644 127.856 120.211C127.559 120.778 127.411 121.438 127.411 122.191C127.411 122.767 127.521 123.304 127.741 123.804C127.97 124.295 128.291 124.718 128.706 125.073C129.112 125.437 129.608 125.725 130.192 125.937C130.784 126.148 131.444 126.254 132.172 126.254C132.621 126.254 133.044 126.207 133.442 126.114C133.839 126.021 134.216 125.894 134.571 125.733C134.918 125.573 135.236 125.386 135.524 125.175C135.82 124.963 136.086 124.739 136.323 124.502C136.349 124.79 136.387 125.069 136.438 125.34C136.497 125.602 136.573 125.822 136.666 126ZM132.515 124.21C132.058 124.21 131.656 124.151 131.309 124.032C130.962 123.914 130.674 123.749 130.445 123.537C130.217 123.334 130.043 123.089 129.925 122.801C129.815 122.513 129.76 122.2 129.76 121.861C129.76 121.506 129.823 121.188 129.95 120.909C130.086 120.63 130.28 120.389 130.534 120.186C130.89 119.898 131.368 119.686 131.969 119.551C132.578 119.407 133.289 119.335 134.102 119.335H136.285V122.115C136.15 122.386 135.964 122.648 135.727 122.902C135.49 123.148 135.21 123.368 134.889 123.562C134.559 123.757 134.195 123.914 133.797 124.032C133.399 124.151 132.972 124.21 132.515 124.21ZM149.108 124.35C148.371 124.35 147.753 124.206 147.254 123.918C146.763 123.622 146.37 123.237 146.073 122.763C145.769 122.297 145.549 121.772 145.413 121.188C145.286 120.596 145.223 119.999 145.223 119.398V118.865C145.223 118.273 145.286 117.685 145.413 117.101C145.549 116.517 145.769 115.988 146.073 115.514C146.378 115.048 146.776 114.672 147.267 114.384C147.766 114.088 148.38 113.939 149.108 113.939C149.582 113.939 150.022 114.02 150.428 114.181C150.843 114.341 151.198 114.562 151.494 114.841C151.79 115.12 152.023 115.446 152.193 115.818C152.37 116.182 152.463 116.572 152.472 116.986H154.693C154.693 116.292 154.554 115.641 154.275 115.031C153.995 114.422 153.61 113.893 153.119 113.444C152.62 113.004 152.027 112.657 151.342 112.403C150.665 112.141 149.92 112.01 149.108 112.01C148.067 112.01 147.157 112.196 146.378 112.568C145.599 112.941 144.952 113.44 144.436 114.066C143.911 114.701 143.517 115.433 143.255 116.263C142.993 117.092 142.861 117.96 142.861 118.865V119.398C142.861 120.312 142.993 121.184 143.255 122.014C143.517 122.835 143.911 123.558 144.436 124.185C144.952 124.819 145.599 125.323 146.378 125.695C147.157 126.068 148.067 126.254 149.108 126.254C149.835 126.254 150.534 126.131 151.202 125.886C151.871 125.632 152.463 125.293 152.98 124.87C153.496 124.455 153.906 123.973 154.211 123.423C154.524 122.864 154.685 122.28 154.693 121.671H152.472C152.463 122.052 152.362 122.407 152.167 122.737C151.981 123.059 151.731 123.338 151.418 123.575C151.105 123.821 150.745 124.011 150.339 124.146C149.941 124.282 149.531 124.35 149.108 124.35ZM164.431 108.938H162.069V112.264H158.464V114.079H162.069V121.544C162.069 122.39 162.179 123.114 162.4 123.715C162.628 124.307 162.937 124.79 163.326 125.162C163.716 125.543 164.173 125.822 164.697 126C165.231 126.169 165.802 126.254 166.411 126.254C166.775 126.254 167.139 126.237 167.503 126.203C167.875 126.169 168.227 126.118 168.557 126.051C168.887 125.992 169.192 125.92 169.471 125.835C169.75 125.742 169.987 125.636 170.182 125.518L169.852 123.854C169.708 123.888 169.522 123.931 169.293 123.981C169.073 124.024 168.836 124.066 168.582 124.108C168.32 124.151 168.053 124.189 167.782 124.223C167.512 124.248 167.249 124.261 166.995 124.261C166.648 124.261 166.318 124.218 166.005 124.134C165.7 124.049 165.429 123.901 165.193 123.689C164.956 123.486 164.769 123.211 164.634 122.864C164.498 122.517 164.431 122.077 164.431 121.544V114.079H169.661V112.264H164.431V108.938ZM178.573 124.477C178.573 124.967 178.726 125.386 179.03 125.733C179.344 126.072 179.805 126.241 180.414 126.241C181.015 126.241 181.476 126.072 181.798 125.733C182.12 125.395 182.28 124.976 182.28 124.477C182.28 123.969 182.12 123.541 181.798 123.194C181.485 122.839 181.024 122.661 180.414 122.661C179.796 122.661 179.335 122.839 179.03 123.194C178.726 123.55 178.573 123.977 178.573 124.477Z" fill="#E8F8F8"/>
<line x1="4.00891" y1="27.5" x2="4.00892" y2="139.5" stroke="url(#paint0_linear_375_75)" stroke-linecap="round"/>
<defs>
<linearGradient id="paint0_linear_375_75" x1="3.50891" y1="83.5" x2="2.50891" y2="83.5" gradientUnits="userSpaceOnUse">
<stop stop-color="#63A7A4"/>
<stop offset="1" stop-color="#63A7A4" stop-opacity="0"/>
</linearGradient>
</defs>
</svg>