<svg width="920" height="227" viewBox="0 0 920 227" fill="none" xmlns="http://www.w3.org/2000/svg">
<rect x="0.75" y="0.5" width="918.5" height="224" rx="19.5" fill="#63A7A4" fill-opacity="0.18" stroke="#63A7A4"/>
<mask id="mask0_419_28" style="mask-type:alpha" maskUnits="userSpaceOnUse" x="658" y="7" width="261" height="218">
<path d="M658.938 27C658.938 15.9543 667.892 7 678.938 7H908.75C914.273 7 918.75 11.4772 918.75 17V205C918.75 216.046 909.796 225 898.75 225H678.937C667.892 225 658.938 216.046 658.938 205V27Z" fill="#D9D9D9"/>
</mask>
<g mask="url(#mask0_419_28)">
<rect x="673.475" y="28.0674" width="215.155" height="196.933" rx="10" fill="#63A7A4" fill-opacity="0.18"/>
<mask id="mask1_419_28" style="mask-type:alpha" maskUnits="userSpaceOnUse" x="673" y="28" width="216" height="197">
<rect x="673.475" y="28.0674" width="215.155" height="196.933" rx="10" fill="#122B2B"/>
</mask>
<g mask="url(#mask1_419_28)">
<g filter="url(#filter0_f_419_28)">
<rect x="673.475" y="28.0674" width="215.155" height="196.933" rx="10" fill="#122B2B"/>
</g>
</g>
</g>
<mask id="mask2_419_28" style="mask-type:alpha" maskUnits="userSpaceOnUse" x="554" y="26" width="184" height="199">
<path d="M554.64 46.4644C554.64 35.4187 563.595 26.4644 574.64 26.4644H727.664C733.187 26.4644 737.664 30.9415 737.664 36.4644V205C737.664 216.046 728.71 225 717.664 225H574.64C563.595 225 554.64 216.046 554.64 205V46.4644Z" fill="#D9D9D9"/>
</mask>
<g mask="url(#mask2_419_28)">
<rect x="565.927" y="57.6069" width="167.045" height="167.393" rx="10" fill="#63A7A4" fill-opacity="0.18"/>
<mask id="mask3_419_28" style="mask-type:alpha" maskUnits="userSpaceOnUse" x="565" y="58" width="168" height="168">
<rect x="565.927" y="58.6069" width="167.045" height="167.393" rx="10" fill="#122B2B"/>
</mask>
<g mask="url(#mask3_419_28)">
<g filter="url(#filter1_f_419_28)">
<rect x="565.927" y="58.6069" width="167.045" height="167.393" rx="10" fill="#122B2B"/>
</g>
</g>
</g>
<line x1="530.358" y1="1" x2="530.358" y2="227" stroke="#63A7A4" stroke-opacity="0.18"/>
<mask id="mask4_419_28" style="mask-type:alpha" maskUnits="userSpaceOnUse" x="0" y="1" width="561" height="224">
<rect x="0.25" y="1" width="560.579" height="224" rx="20" fill="#D9D9D9"/>
</mask>
<g mask="url(#mask4_419_28)">
<circle cx="293.254" cy="299" r="157.755" fill="#63A7A4" fill-opacity="0.18" stroke="#63A7A4"/>
<circle cx="293.254" cy="299" r="207.273" fill="#63A7A4" fill-opacity="0.18"/>
<circle cx="296.54" cy="142" r="22.9604" fill="#63A7A4"/>
<mask id="mask5_419_28" style="mask-type:alpha" maskUnits="userSpaceOnUse" x="358" y="89" width="47" height="47">
<circle cx="381.54" cy="112.5" r="22.9604" fill="#63A7A4"/>
</mask>
<g mask="url(#mask5_419_28)">
<g filter="url(#filter2_f_419_28)">
<circle cx="381.54" cy="112.5" r="22.9604" fill="#1A5A59"/>
</g>
<path d="M383.009 99.3345L372.125 114.25C371.804 114.731 372.149 115.375 372.727 115.375H380.098C380.619 115.375 381.001 115.865 380.874 116.371L378.709 124.95C378.496 125.794 379.595 126.323 380.122 125.63L391.024 111.284C391.424 110.757 391.049 110 390.387 110H382.68C382.151 110 381.767 109.494 381.91 108.984L384.426 100.022C384.667 99.1639 383.535 98.6143 383.009 99.3345Z" fill="#E8F8F8"/>
</g>
<mask id="mask6_419_28" style="mask-type:alpha" maskUnits="userSpaceOnUse" x="181" y="89" width="46" height="47">
<circle cx="204.04" cy="112.5" r="22.9604" fill="#63A7A4"/>
</mask>
<g mask="url(#mask6_419_28)">
<g filter="url(#filter3_f_419_28)">
<circle cx="204.04" cy="112.5" r="22.9604" fill="#1A5A59"/>
</g>
</g>
<path d="M217 113.003C217 111.259 214.843 109.606 211.536 108.581C212.299 105.168 211.96 102.452 210.466 101.583C210.121 101.379 209.718 101.282 209.278 101.282V102.479C209.522 102.479 209.718 102.527 209.883 102.618C210.603 103.037 210.916 104.631 210.672 106.681C210.614 107.185 210.519 107.717 210.402 108.259C209.363 108.001 208.229 107.803 207.037 107.674C206.321 106.681 205.579 105.779 204.832 104.99C206.56 103.364 208.181 102.474 209.284 102.474V101.277C207.826 101.277 205.918 102.329 203.989 104.153C202.06 102.339 200.152 101.298 198.695 101.298V102.495C199.792 102.495 201.419 103.381 203.147 104.996C202.405 105.785 201.663 106.681 200.958 107.674C199.76 107.803 198.626 108.001 197.587 108.264C197.466 107.727 197.375 107.207 197.312 106.708C197.063 104.658 197.37 103.064 198.086 102.64C198.245 102.543 198.451 102.5 198.695 102.5V101.304C198.25 101.304 197.847 101.4 197.497 101.604C196.008 102.474 195.674 105.184 196.443 108.586C193.146 109.616 191 111.264 191 113.003C191 114.747 193.157 116.4 196.464 117.425C195.701 120.838 196.04 123.553 197.534 124.423C197.879 124.626 198.282 124.723 198.727 124.723C200.184 124.723 202.092 123.671 204.021 121.847C205.95 123.66 207.858 124.702 209.316 124.702C209.761 124.702 210.163 124.605 210.513 124.401C212.002 123.532 212.336 120.822 211.568 117.419C214.854 116.394 217 114.741 217 113.003ZM210.1 109.423C209.904 110.115 209.66 110.829 209.384 111.543C209.167 111.114 208.939 110.684 208.69 110.255C208.446 109.826 208.187 109.407 207.927 108.999C208.68 109.112 209.406 109.251 210.1 109.423ZM207.673 115.138C207.259 115.863 206.835 116.55 206.395 117.188C205.606 117.258 204.806 117.296 204 117.296C203.2 117.296 202.4 117.258 201.615 117.194C201.175 116.555 200.746 115.874 200.333 115.155C199.93 114.452 199.564 113.738 199.23 113.019C199.559 112.3 199.93 111.581 200.327 110.878C200.741 110.153 201.165 109.466 201.605 108.828C202.394 108.758 203.194 108.72 204 108.72C204.8 108.72 205.6 108.758 206.385 108.822C206.825 109.461 207.254 110.142 207.667 110.861C208.07 111.564 208.436 112.278 208.77 112.997C208.436 113.716 208.07 114.435 207.673 115.138ZM209.384 114.441C209.671 115.16 209.914 115.879 210.116 116.577C209.422 116.748 208.69 116.893 207.932 117.006C208.192 116.593 208.452 116.169 208.695 115.734C208.939 115.305 209.167 114.87 209.384 114.441ZM204.011 120.167C203.518 119.652 203.025 119.078 202.537 118.45C203.014 118.471 203.502 118.487 203.995 118.487C204.493 118.487 204.986 118.476 205.468 118.45C204.991 119.078 204.498 119.652 204.011 120.167ZM200.068 117.006C199.315 116.893 198.589 116.754 197.895 116.582C198.091 115.89 198.335 115.176 198.61 114.462C198.828 114.892 199.055 115.321 199.305 115.75C199.554 116.18 199.808 116.598 200.068 117.006ZM203.984 105.838C204.477 106.354 204.97 106.928 205.457 107.556C204.98 107.534 204.493 107.518 204 107.518C203.502 107.518 203.009 107.529 202.527 107.556C203.004 106.928 203.497 106.354 203.984 105.838ZM200.062 108.999C199.803 109.412 199.543 109.836 199.299 110.271C199.055 110.7 198.828 111.13 198.61 111.559C198.324 110.84 198.08 110.121 197.879 109.423C198.573 109.257 199.305 109.112 200.062 108.999ZM195.266 115.718C193.39 114.908 192.177 113.845 192.177 113.003C192.177 112.16 193.39 111.092 195.266 110.287C195.722 110.089 196.22 109.912 196.734 109.745C197.036 110.797 197.434 111.892 197.927 113.013C197.439 114.13 197.047 115.219 196.75 116.265C196.225 116.099 195.727 115.917 195.266 115.718ZM198.117 123.387C197.397 122.968 197.084 121.374 197.328 119.324C197.386 118.82 197.481 118.289 197.598 117.747C198.637 118.004 199.771 118.203 200.963 118.332C201.679 119.324 202.421 120.226 203.168 121.015C201.44 122.641 199.819 123.532 198.716 123.532C198.478 123.526 198.276 123.478 198.117 123.387ZM210.688 119.298C210.937 121.348 210.63 122.941 209.914 123.365C209.755 123.462 209.549 123.505 209.305 123.505C208.208 123.505 206.581 122.619 204.853 121.004C205.595 120.215 206.337 119.319 207.042 118.326C208.24 118.197 209.374 117.999 210.413 117.736C210.534 118.278 210.63 118.798 210.688 119.298ZM212.728 115.718C212.273 115.917 211.775 116.094 211.26 116.26C210.958 115.208 210.561 114.113 210.068 112.992C210.556 111.876 210.948 110.786 211.245 109.74C211.769 109.906 212.267 110.089 212.734 110.287C214.61 111.098 215.823 112.16 215.823 113.003C215.818 113.845 214.605 114.913 212.728 115.718Z" fill="#E8F8F8"/>
<path d="M203.995 115.455C205.332 115.455 206.417 114.357 206.417 113.003C206.417 111.648 205.332 110.55 203.995 110.55C202.657 110.55 201.573 111.648 201.573 113.003C201.573 114.357 202.657 115.455 203.995 115.455Z" fill="#E8F8F8"/>
<path d="M296.54 142C296.54 140.762 297.04 139.576 297.931 138.7C298.822 137.825 300.03 137.333 301.29 137.333C302.549 137.333 303.758 137.825 304.648 138.7C305.539 139.576 306.04 140.762 306.04 142C306.04 143.238 305.539 144.425 304.648 145.3C303.758 146.175 302.549 146.667 301.29 146.667C300.03 146.667 298.822 146.175 297.931 145.3C297.04 144.425 296.54 143.238 296.54 142V142Z" stroke="#E8F8F8" stroke-width="2"/>
<path d="M287.04 151.333C287.04 150.095 287.54 148.909 288.431 148.033C289.322 147.158 290.53 146.667 291.79 146.667H296.54V151.333C296.54 152.571 296.039 153.758 295.148 154.633C294.258 155.508 293.049 156 291.79 156C290.53 156 289.322 155.508 288.431 154.633C287.54 153.758 287.04 152.571 287.04 151.333Z" stroke="#E8F8F8" stroke-width="2"/>
<path d="M296.54 128V137.333H301.29C302.549 137.333 303.758 136.842 304.648 135.966C305.539 135.091 306.04 133.904 306.04 132.667C306.04 131.429 305.539 130.242 304.648 129.367C303.758 128.492 302.549 128 301.29 128H296.54Z" stroke="#E8F8F8" stroke-width="2"/>
<path d="M287.04 132.667C287.04 133.904 287.54 135.091 288.431 135.966C289.322 136.842 290.53 137.333 291.79 137.333H296.54V128H291.79C290.53 128 289.322 128.492 288.431 129.367C287.54 130.242 287.04 131.429 287.04 132.667Z" stroke="#E8F8F8" stroke-width="2"/>
<path d="M287.04 142C287.04 143.238 287.54 144.425 288.431 145.3C289.322 146.175 290.53 146.667 291.79 146.667H296.54V137.333H291.79C290.53 137.333 289.322 137.825 288.431 138.7C287.54 139.576 287.04 140.762 287.04 142Z" stroke="#E8F8F8" stroke-width="2"/>
</g>
<defs>
<filter id="filter0_f_419_28" x="523.475" y="-121.933" width="515.155" height="496.933" filterUnits="userSpaceOnUse" color-interpolation-filters="sRGB">
<feFlood flood-opacity="0" result="BackgroundImageFix"/>
<feBlend mode="normal" in="SourceGraphic" in2="BackgroundImageFix" result="shape"/>
<feGaussianBlur stdDeviation="75" result="effect1_foregroundBlur_419_28"/>
</filter>
<filter id="filter1_f_419_28" x="415.927" y="-91.3931" width="467.045" height="467.393" filterUnits="userSpaceOnUse" color-interpolation-filters="sRGB">
<feFlood flood-opacity="0" result="BackgroundImageFix"/>
<feBlend mode="normal" in="SourceGraphic" in2="BackgroundImageFix" result="shape"/>
<feGaussianBlur stdDeviation="75" result="effect1_foregroundBlur_419_28"/>
</filter>
<filter id="filter2_f_419_28" x="342.579" y="73.5396" width="77.9209" height="77.9209" filterUnits="userSpaceOnUse" color-interpolation-filters="sRGB">
<feFlood flood-opacity="0" result="BackgroundImageFix"/>
<feBlend mode="normal" in="SourceGraphic" in2="BackgroundImageFix" result="shape"/>
<feGaussianBlur stdDeviation="8" result="effect1_foregroundBlur_419_28"/>
</filter>
<filter id="filter3_f_419_28" x="165.079" y="73.5396" width="77.9209" height="77.9209" filterUnits="userSpaceOnUse" color-interpolation-filters="sRGB">
<feFlood flood-opacity="0" result="BackgroundImageFix"/>
<feBlend mode="normal" in="SourceGraphic" in2="BackgroundImageFix" result="shape"/>
<feGaussianBlur stdDeviation="8" result="effect1_foregroundBlur_419_28"/>
</filter>
</defs>
</svg>
